# Blender v2.93.5 OBJ File: 'village.blend'
# www.blender.org
o Cube
v 1.000000 1.000000 -1.000000
v 1.037517 0.076497 -1.053612
v 1.000000 1.000000 1.000000
v 1.037517 0.076497 1.053612
v 1.000000 0.104058 -1.000000
v 1.000000 0.104058 1.000000
v 1.000000 1.000000 0.000000
v 1.037517 0.076497 0.000000
v 1.000000 0.104058 0.000000
v 1.118792 0.917141 -1.296980
v 1.118792 0.917141 1.296980
v 1.118792 0.917141 0.000000
v 1.118792 1.016666 -1.296980
v 1.118792 1.016666 0.000000
v 1.118792 1.016666 1.296980
v 1.117527 1.012530 0.000000
v 1.037517 -0.027849 0.000000
v 0.090313 1.315186 -0.809306
v 0.090313 1.315186 -0.638255
v 0.090313 1.538434 -0.809306
v 0.090313 1.538434 -0.638255
v 0.041989 1.538434 -0.756987
v 0.041989 1.538434 -0.690574
v 0.041989 1.386770 -0.756987
v 0.041989 1.386770 -0.690574
v 0.221736 0.836010 1.000000
v 0.221736 0.104058 1.000000
v 0.221736 0.836010 0.975890
v 0.221736 0.104058 0.975890
v -1.000000 1.000000 -1.000000
v -1.037517 0.076497 -1.053612
v -1.000000 1.000000 1.000000
v -1.037517 0.076497 1.053612
v 0.000000 0.076497 -1.053612
v -1.000000 0.104058 -1.000000
v -1.000000 0.104058 1.000000
v 0.000000 1.254745 1.000000
v -1.000000 1.000000 0.000000
v 0.000000 0.076497 1.053612
v 0.000000 1.254745 -1.000000
v -1.037517 0.076497 0.000000
v 0.000000 0.104058 -1.000000
v -1.000000 0.104058 0.000000
v -1.118792 0.917141 -1.296980
v -1.118792 0.917141 1.296980
v 0.000000 1.254745 1.296980
v -1.118792 0.917141 0.000000
v 0.000000 1.254745 -1.296980
v -1.118792 1.016666 -1.296980
v -1.118792 1.016666 1.296980
v 0.000000 1.354270 1.296980
v -1.118792 1.016666 0.000000
v -1.117527 1.012530 0.000000
v 0.000000 1.354270 -1.296980
v 0.000000 1.354270 0.000000
v 0.000000 -0.027849 1.053612
v 0.000000 1.538434 -0.809306
v 0.000000 1.538434 -0.756987
v 0.000000 1.354270 -0.638255
v 0.000000 1.354270 -0.809306
v 0.000000 1.538434 -0.638255
v -0.090313 1.315186 -0.809306
v -0.090313 1.315186 -0.638255
v -0.090313 1.538434 -0.809306
v -0.090313 1.538434 -0.638255
v 0.000000 1.538434 -0.690574
v -0.041989 1.538434 -0.756987
v -0.041989 1.538434 -0.690574
v 0.000000 1.386770 -0.756987
v 0.000000 1.386770 -0.690574
v -0.041989 1.386770 -0.756987
v -0.041989 1.386770 -0.690574
v 0.000000 0.836010 1.000000
v -0.221736 0.104058 1.000000
v 0.000000 0.104058 1.000000
v -0.221736 0.836010 1.000000
v 0.000000 0.104058 0.975890
v 0.000000 0.836010 0.975890
v 1.037517 -0.027849 -1.053612
v 1.037517 -0.027849 1.053612
v 1.037517 -0.027849 -2.049765
v 1.037517 -0.027849 2.049765
v 2.463230 -0.027849 0.000000
v 2.303098 -0.027849 -1.055738
v 2.303098 -0.027849 1.055738
v 1.851556 -0.027849 -1.788846
v 1.851556 -0.027849 1.788846
v -1.037517 -0.027849 -1.053612
v -1.037517 -0.027849 1.053612
v 0.000000 -0.027849 -1.053612
v -1.037517 -0.027849 0.000000
v -1.037517 -0.027849 -2.049765
v -1.037517 -0.027849 2.049765
v 0.000000 -0.027849 -2.111476
v 0.000000 -0.027849 2.111476
v -2.463230 -0.027849 0.000000
v -2.303098 -0.027849 -1.055738
v -2.303098 -0.027849 1.055738
v -1.851556 -0.027849 -1.788846
v -1.851556 -0.027849 1.788846
v 0.213618 0.836010 1.060354
v 0.213618 0.104058 1.060354
v -0.004059 0.104058 1.018122
v -0.221736 0.836010 0.975890
v -0.004059 0.836010 1.018122
v -0.221736 0.104058 0.975890
v -0.004059 0.470034 1.018122
v 0.217427 0.836010 1.040721
v 0.217427 0.104058 1.040721
v -0.000250 0.104058 0.998488
v -0.217927 0.836010 0.956256
v -0.000250 0.836010 0.998488
v -0.217927 0.104058 0.956256
v -0.000250 0.470034 0.998488
vt 0.904474 0.516196
vt 0.889729 0.367096
vt 0.889729 0.516196
vt 0.452283 0.694824
vt 0.325676 0.836338
vt 0.452283 0.836338
vt 0.000000 0.836338
vt 0.126788 0.977852
vt 0.162838 0.836338
vt 0.743139 0.367096
vt 0.602069 0.374682
vt 0.743358 0.374683
vt 0.596549 0.516196
vt 0.602069 0.657710
vt 0.602069 0.516196
vt 0.596549 0.367096
vt 0.325676 0.977852
vt 0.452283 0.977852
vt 0.999406 0.146823
vt 0.984640 0.000000
vt 0.984640 0.146823
vt 0.743139 0.665298
vt 0.743358 0.657711
vt 0.712029 0.657710
vt 0.289626 0.694824
vt 0.162838 0.694824
vt 0.266420 0.804960
vt 0.615087 0.325057
vt 0.760642 0.367081
vt 0.760642 0.325055
vt 0.596549 0.183545
vt 0.615087 0.183543
vt 0.615087 0.042029
vt 0.760642 0.000000
vt 0.760642 0.042027
vt 0.970575 0.000000
vt 0.984639 0.183541
vt 0.984639 0.000000
vt 0.956491 0.158325
vt 0.922800 0.000000
vt 0.908716 0.000000
vt 0.970575 0.183541
vt 0.984639 0.367081
vt 0.922800 0.633298
vt 0.956491 0.474974
vt 0.908716 0.633298
vt 1.000000 0.000000
vt 0.999406 0.183541
vt 1.000000 0.183541
vt 1.000000 0.367081
vt 0.917255 0.639235
vt 0.930035 0.665297
vt 0.930035 0.633704
vt 0.780092 0.813372
vt 0.963643 0.977381
vt 0.963633 0.813366
vt 0.904474 0.665297
vt 0.889729 0.665297
vt 0.999406 0.587292
vt 0.984640 0.440469
vt 0.984640 0.587292
vt 0.970575 0.765710
vt 0.994782 0.734163
vt 0.970575 0.734163
vt 0.596552 0.981445
vt 0.689768 0.833753
vt 0.665561 0.833753
vt 0.930035 0.665297
vt 0.942816 0.639235
vt 0.930035 0.633704
vt 0.977979 0.815951
vt 0.970575 0.810018
vt 0.970575 0.822778
vt 0.994781 0.810018
vt 0.987378 0.815951
vt 0.994781 0.822778
vt 0.967480 0.633704
vt 0.961538 0.655167
vt 0.967480 0.655167
vt 0.976518 0.822778
vt 0.970575 0.844241
vt 0.976518 0.844241
vt 0.979974 0.844241
vt 0.970576 0.865673
vt 0.979974 0.865673
vt 0.904474 0.470529
vt 0.907886 0.573962
vt 0.907886 0.470529
vt 0.963643 0.727956
vt 0.967054 0.758891
vt 0.967054 0.727956
vt 0.967054 0.696627
vt 0.963643 0.665298
vt 0.963643 0.696627
vt 0.578889 0.993026
vt 0.593635 0.843925
vt 0.578889 0.843925
vt 0.452283 0.836338
vt 0.578889 0.977852
vt 0.578889 0.836338
vt 0.126788 0.694824
vt 0.000000 0.694824
vt 0.884648 0.374683
vt 0.889729 0.367097
vt 0.889729 0.516197
vt 0.884648 0.657711
vt 0.889729 0.665298
vt 0.452283 0.694824
vt 0.578889 0.694824
vt 0.984640 0.293646
vt 0.774687 0.657711
vt 0.325676 0.836338
vt 0.266420 0.836338
vt 0.266420 0.867717
vt 0.894109 0.325066
vt 0.908716 0.367096
vt 0.908716 0.183555
vt 0.894109 0.183552
vt 0.894109 0.042038
vt 0.908716 0.000014
vt 0.984639 0.550622
vt 0.970575 0.734163
vt 0.984639 0.734163
vt 0.922800 0.316649
vt 0.970575 0.158325
vt 0.984639 0.367081
vt 0.970575 0.550622
vt 0.922800 0.316649
vt 0.908716 0.316649
vt 1.000000 0.734163
vt 1.000000 0.550622
vt 0.999406 0.550622
vt 1.000000 0.367081
vt 0.904474 0.665297
vt 0.917255 0.665297
vt 0.963643 0.665567
vt 0.780102 0.665298
vt 0.593635 0.694824
vt 0.578889 0.694824
vt 0.999406 0.293646
vt 0.984640 0.293646
vt 0.970575 0.765710
vt 0.994781 0.797258
vt 0.994781 0.765710
vt 0.596552 0.665298
vt 0.665561 0.808232
vt 0.689768 0.808232
vt 0.955596 0.665297
vt 0.955596 0.633704
vt 0.977979 0.804085
vt 0.970575 0.797258
vt 0.987378 0.804085
vt 0.987378 0.810018
vt 0.955596 0.633704
vt 0.955596 0.655167
vt 0.982460 0.844241
vt 0.979974 0.887105
vt 0.970575 0.865673
vt 0.970575 0.887105
vt 0.904474 0.470529
vt 0.907886 0.367096
vt 0.904474 0.367096
vt 0.963643 0.789825
vt 0.967054 0.789825
vt 0.963643 0.727956
vt 0.447111 0.338545
vt 0.596549 0.476492
vt 0.455829 0.484876
vt 0.149438 0.356280
vt 0.017435 0.510994
vt 0.000000 0.365183
vt 0.306992 0.493743
vt 0.466763 0.663354
vt 0.318971 0.694824
vt 0.168488 0.681125
vt 0.158155 0.502610
vt 0.566530 0.593499
vt 0.061133 0.623610
vt 0.579114 0.183830
vt 0.438394 0.192214
vt 0.000000 0.218333
vt 0.140720 0.209949
vt 0.289557 0.201082
vt 0.428060 0.013700
vt 0.129786 0.031470
vt 0.535415 0.071215
vt 0.030019 0.101325
vt 0.298957 0.365470
vt 0.298957 0.345363
vt 0.311140 0.365470
vt 0.286775 0.325256
vt 0.286775 0.365470
vt 0.298957 0.325256
vt 0.311140 0.325256
vt 0.274592 0.365470
vt 0.262410 0.365470
vt 0.274592 0.345363
vt 0.286775 0.325256
vt 0.286775 0.365470
vt 0.274592 0.325256
vt 0.262410 0.325256
vt 0.312238 0.365470
vt 0.313337 0.365470
vt 0.312238 0.325256
vt 0.313337 0.325256
vt 0.314436 0.361803
vt 0.313337 0.349621
vt 0.314436 0.349621
vt 0.314436 0.373986
vt 0.313337 0.361803
vt 0.313337 0.325256
vt 0.314436 0.337438
vt 0.313337 0.337438
vt 0.314436 0.349621
vt 0.313337 0.349621
vt 0.904474 0.367096
vt 0.325676 0.694824
vt 0.000000 0.977852
vt 0.596549 0.665297
vt 0.999406 0.000000
vt 0.162838 0.804960
vt 0.596549 0.367085
vt 0.596549 0.000004
vt 0.970575 0.367081
vt 0.970575 0.474974
vt 0.780102 0.977465
vt 0.999406 0.440469
vt 0.994782 0.765710
vt 0.665561 0.820681
vt 0.596548 0.820681
vt 0.780092 0.981298
vt 0.780089 0.820681
vt 0.689767 0.820681
vt 0.942816 0.665297
vt 0.977979 0.810018
vt 0.961538 0.633704
vt 0.970575 0.822778
vt 0.970576 0.844241
vt 0.904474 0.573962
vt 0.963643 0.758891
vt 0.967054 0.665298
vt 0.593635 0.993026
vt 0.452283 0.977852
vt 0.884648 0.516197
vt 0.999406 0.293646
vt 0.162838 0.867717
vt 0.162838 0.977852
vt 0.289626 0.977852
vt 0.908716 0.316649
vt 0.970575 0.367081
vt 0.904474 0.633704
vt 0.780092 0.665509
vt 0.982460 0.822778
vt 0.979974 0.865673
vt 0.907886 0.470529
vt 0.967054 0.727956
vt 0.596549 0.329642
vt 0.277578 0.000000
vt 0.312238 0.325256
vt 0.312238 0.365470
vt 0.313337 0.373986
vt 0.314436 0.325256
vn -1.0000 0.0000 0.0000
vn 0.0000 0.0000 1.0000
vn 0.0000 -0.8894 0.4572
vn -0.5920 -0.8059 0.0000
vn 0.0000 -0.8894 -0.4572
vn 0.0000 0.0000 -1.0000
vn 0.2469 0.9691 0.0000
vn 0.5721 0.8202 0.0000
vn 0.9563 -0.2925 0.0000
vn 0.2924 0.9563 0.0000
vn -0.2787 -0.9604 0.0000
vn 0.0000 -1.0000 -0.0000
vn 1.0000 0.0000 0.0000
vn 0.0000 1.0000 0.0000
vn 0.5920 -0.8059 0.0000
vn -0.2856 0.9466 -0.1498
vn -0.5721 0.8202 0.0000
vn -0.2469 0.9691 0.0000
vn -0.9563 -0.2925 0.0000
vn -0.2889 0.9574 -0.0033
vn 0.2787 -0.9604 0.0000
vn 0.1905 0.0000 -0.9817
vn -0.1905 0.0000 0.9817
vn 0.9817 0.0000 0.1905
vn -0.9817 0.0000 -0.1905
vn 0.2856 0.9466 -0.1498
vn 0.2856 0.9466 0.1498
vn 0.2889 0.9574 -0.0033
vn -0.3972 -0.9177 0.0000
vn -0.2888 -0.9571 -0.0232
vn -0.2807 -0.9598 -0.0033
vn -0.2924 -0.9561 0.0172
vn -0.2856 0.9466 0.1498
vn -0.2924 0.9563 0.0000
vn 0.2888 -0.9571 -0.0232
vn 0.3972 -0.9177 0.0000
vn 0.2924 -0.9561 0.0172
vn 0.2807 -0.9598 -0.0033
s off
f 17/1/1 4/2/1 8/3/1
f 6/4/1 7/5/1 9/6/1
f 42/7/2 1/8/2 40/9/2
f 34/10/3 5/11/3 42/12/3
f 8/13/4 6/14/4 9/15/4
f 8/13/4 5/11/4 2/16/4
f 9/6/1 1/17/1 5/18/1
f 90/19/2 2/20/2 34/21/2
f 39/22/5 75/23/5 27/24/5
f 3/25/6 6/26/6 26/27/6
f 1/28/7 48/29/7 40/30/7
f 12/31/8 1/28/8 7/32/8
f 3/33/8 12/31/8 7/32/8
f 46/34/7 3/33/7 37/35/7
f 15/36/1 12/37/1 11/38/1
f 46/39/6 15/40/6 11/41/6
f 14/42/1 10/43/1 12/37/1
f 13/44/2 48/45/2 10/46/2
f 15/47/9 16/48/9 14/49/9
f 14/49/9 16/48/9 13/50/9
f 59/51/6 21/52/6 19/53/6
f 51/54/10 16/55/10 55/56/10
f 79/57/1 8/3/1 2/58/1
f 80/59/6 39/60/6 4/61/6
f 21/62/1 18/63/1 19/64/1
f 13/65/11 19/66/11 18/67/11
f 20/68/2 60/69/2 18/70/2
f 22/71/12 57/72/12 20/73/12
f 61/74/12 23/75/12 21/76/12
f 23/75/12 20/73/12 21/76/12
f 24/77/6 58/78/6 22/79/6
f 70/80/2 23/81/2 66/82/2
f 25/83/13 22/84/13 23/85/13
f 29/86/13 26/87/13 27/88/13
f 28/89/14 73/90/14 26/91/14
f 77/92/12 27/93/12 75/94/12
f 33/95/13 91/96/13 41/97/13
f 38/98/13 36/99/13 43/100/13
f 42/7/2 30/101/2 35/102/2
f 34/10/3 35/103/3 31/104/3
f 41/105/15 36/106/15 33/107/15
f 35/103/15 41/105/15 31/104/15
f 30/108/13 43/100/13 35/109/13
f 31/110/2 90/19/2 34/21/2
f 74/111/5 75/23/5 39/22/5
f 37/112/6 73/113/6 76/114/6
f 30/115/16 48/29/16 44/116/16
f 30/115/17 47/117/17 38/118/17
f 32/119/17 47/117/17 45/120/17
f 32/119/18 46/34/18 37/35/18
f 47/121/13 50/122/13 45/123/13
f 46/39/6 50/124/6 51/125/6
f 44/126/13 52/127/13 47/121/13
f 48/45/2 49/128/2 44/129/2
f 50/130/19 52/131/19 53/132/19
f 52/131/19 49/133/19 53/132/19
f 59/51/6 65/134/6 61/135/6
f 51/54/20 53/136/20 50/137/20
f 41/97/13 88/138/13 31/139/13
f 39/60/6 89/140/6 33/141/6
f 62/142/13 65/143/13 63/144/13
f 49/145/21 62/146/21 63/147/21
f 60/69/2 64/148/2 62/149/2
f 57/72/12 67/150/12 64/151/12
f 61/74/12 68/152/12 66/153/12
f 64/151/12 68/152/12 65/143/12
f 58/78/6 71/154/6 67/155/6
f 68/156/2 70/80/2 66/82/2
f 67/157/1 72/158/1 68/159/1
f 76/160/1 106/161/1 74/162/1
f 73/90/14 104/163/14 76/164/14
f 74/165/12 77/92/12 75/94/12
f 56/166/14 82/167/14 80/168/14
f 90/169/14 81/170/14 94/171/14
f 17/172/14 85/173/14 83/174/14
f 17/172/14 84/175/14 79/176/14
f 80/168/14 87/177/14 85/173/14
f 86/178/14 79/176/14 84/175/14
f 93/179/14 56/166/14 89/180/14
f 90/169/14 92/181/14 88/182/14
f 91/183/14 98/184/14 89/180/14
f 97/185/14 91/183/14 88/182/14
f 100/186/14 89/180/14 98/184/14
f 99/187/14 88/182/14 92/181/14
f 105/188/22 107/189/22 104/190/22
f 102/191/22 107/189/22 101/192/22
f 103/193/22 107/189/22 102/191/22
f 104/190/22 107/189/22 106/194/22
f 106/194/22 107/189/22 103/193/22
f 101/192/22 107/189/22 105/188/22
f 112/195/23 111/196/23 114/197/23
f 109/198/23 108/199/23 114/197/23
f 110/200/23 109/198/23 114/197/23
f 111/196/23 113/201/23 114/197/23
f 113/201/23 110/200/23 114/197/23
f 108/199/23 112/195/23 114/197/23
f 106/194/24 111/202/24 104/190/24
f 101/203/25 109/204/25 102/205/25
f 103/206/14 113/207/14 106/208/14
f 102/209/14 110/210/14 103/206/14
f 104/211/12 112/212/12 105/213/12
f 105/213/12 108/214/12 101/215/12
f 17/1/1 80/216/1 4/2/1
f 6/4/1 3/217/1 7/5/1
f 42/7/2 5/218/2 1/8/2
f 34/10/3 2/16/3 5/11/3
f 8/13/4 4/219/4 6/14/4
f 8/13/4 9/15/4 5/11/4
f 9/6/1 7/5/1 1/17/1
f 90/19/2 79/220/2 2/20/2
f 6/14/5 4/219/5 27/24/5
f 4/219/5 39/22/5 27/24/5
f 6/26/6 27/221/6 26/27/6
f 26/27/6 73/113/6 37/112/6
f 37/112/6 3/25/6 26/27/6
f 1/28/26 10/222/26 48/29/26
f 12/31/8 10/222/8 1/28/8
f 3/33/8 11/223/8 12/31/8
f 46/34/27 11/223/27 3/33/27
f 15/36/1 14/42/1 12/37/1
f 46/39/6 51/125/6 15/40/6
f 14/42/1 13/224/1 10/43/1
f 13/44/2 54/225/2 48/45/2
f 59/51/6 61/135/6 21/52/6
f 51/54/28 15/226/28 16/55/28
f 79/57/1 17/1/1 8/3/1
f 80/59/6 56/227/6 39/60/6
f 21/62/1 20/228/1 18/63/1
f 60/229/29 54/230/29 18/67/29
f 54/230/30 13/65/30 18/67/30
f 13/65/31 16/231/31 19/66/31
f 16/231/32 55/232/32 19/66/32
f 55/232/29 59/233/29 19/66/29
f 20/68/2 57/234/2 60/69/2
f 22/71/12 58/235/12 57/72/12
f 61/74/12 66/153/12 23/75/12
f 23/75/12 22/71/12 20/73/12
f 24/77/6 69/236/6 58/78/6
f 70/80/2 25/237/2 23/81/2
f 25/83/13 24/238/13 22/84/13
f 29/86/13 28/239/13 26/87/13
f 28/89/14 78/240/14 73/90/14
f 77/92/12 29/241/12 27/93/12
f 33/95/13 89/242/13 91/96/13
f 38/98/13 32/243/13 36/99/13
f 42/7/2 40/9/2 30/101/2
f 34/10/3 42/12/3 35/103/3
f 41/105/15 43/244/15 36/106/15
f 35/103/15 43/244/15 41/105/15
f 30/108/13 38/98/13 43/100/13
f 31/110/2 88/245/2 90/19/2
f 39/22/5 33/107/5 74/111/5
f 33/107/5 36/106/5 74/111/5
f 76/114/6 74/246/6 36/247/6
f 36/247/6 32/248/6 76/114/6
f 32/248/6 37/112/6 76/114/6
f 30/115/18 40/30/18 48/29/18
f 30/115/17 44/116/17 47/117/17
f 32/119/17 38/118/17 47/117/17
f 32/119/33 45/120/33 46/34/33
f 47/121/13 52/127/13 50/122/13
f 46/39/6 45/249/6 50/124/6
f 44/126/13 49/250/13 52/127/13
f 48/45/2 54/225/2 49/128/2
f 59/51/6 63/251/6 65/134/6
f 51/54/34 55/56/34 53/136/34
f 41/97/13 91/96/13 88/138/13
f 39/60/6 56/227/6 89/140/6
f 62/142/13 64/151/13 65/143/13
f 49/145/35 54/230/35 62/146/35
f 54/230/36 60/229/36 62/146/36
f 55/232/37 53/252/37 63/147/37
f 53/252/38 49/145/38 63/147/38
f 63/147/36 59/233/36 55/232/36
f 60/69/2 57/234/2 64/148/2
f 57/72/12 58/235/12 67/150/12
f 61/74/12 65/143/12 68/152/12
f 64/151/12 67/150/12 68/152/12
f 58/78/6 69/236/6 71/154/6
f 68/156/2 72/253/2 70/80/2
f 67/157/1 71/254/1 72/158/1
f 76/160/1 104/255/1 106/161/1
f 73/90/14 78/240/14 104/163/14
f 74/165/12 106/256/12 77/92/12
f 56/166/14 95/257/14 82/167/14
f 90/169/14 79/176/14 81/170/14
f 17/172/14 80/168/14 85/173/14
f 17/172/14 83/174/14 84/175/14
f 80/168/14 82/167/14 87/177/14
f 86/178/14 81/170/14 79/176/14
f 93/179/14 95/257/14 56/166/14
f 90/169/14 94/171/14 92/181/14
f 91/183/14 96/258/14 98/184/14
f 97/185/14 96/258/14 91/183/14
f 100/186/14 93/179/14 89/180/14
f 99/187/14 97/185/14 88/182/14
f 106/194/24 113/259/24 111/202/24
f 101/203/25 108/260/25 109/204/25
f 103/206/14 110/210/14 113/207/14
f 102/209/14 109/261/14 110/210/14
f 104/211/12 111/262/12 112/212/12
f 105/213/12 112/212/12 108/214/12
l 107 114
