# Blender v2.93.6 OBJ File: ''
# www.blender.org
mtllib cube.mtl
v 1.000000 0.971792 -1.027434
v 1.000000 -1.027434 -0.971792
v 1.000000 1.027434 0.971792
v 1.000000 -0.971792 1.027434
v -1.000000 0.971792 -1.027434
v -1.000000 -1.027434 -0.971792
v -1.000000 1.027434 0.971792
v -1.000000 -0.971792 1.027434
vt 0.056244 0.943756
vt 0.943756 0.056244
vt 0.943756 0.943756
vt 0.943756 0.943756
vt 0.056244 0.056244
vt 0.943756 0.056244
vt 0.056244 0.943756
vt 0.943756 0.056244
vt 0.943756 0.943756
vt 0.056244 0.943756
vt 0.056244 0.056244
vt 0.943756 0.056244
vt 0.056244 0.056244
vt 0.056244 0.056244
vt 0.943756 0.943756
vt 0.056244 0.943756
vn 0.0000 0.9996 -0.0278
vn 0.0000 0.0278 0.9996
vn -1.0000 0.0000 0.0000
vn 0.0000 -0.9996 0.0278
vn 1.0000 0.0000 0.0000
vn 0.0000 -0.0278 -0.9996
usemtl Material
s off
f 5/1/1 3/2/1 1/3/1
f 3/4/2 8/5/2 4/6/2
f 7/7/3 6/8/3 8/5/3
f 2/9/4 8/5/4 6/10/4
f 1/3/5 4/11/5 2/12/5
f 5/1/6 2/12/6 6/13/6
f 5/1/1 7/14/1 3/2/1
f 3/4/2 7/7/2 8/5/2
f 7/7/3 5/15/3 6/8/3
f 2/9/4 4/6/4 8/5/4
f 1/3/5 3/16/5 4/11/5
f 5/1/6 1/3/6 2/12/6
